# xmcd
#
# Track frame offsets: 
#        150
#        13210
#        30945
#        61095
#        92712
#
# Disc length: 1594 seconds
#
# Revision: 2
# Processed by: cddbd v1.5.2PL0 Copyright (c) Steve Scherf et al.
# Submitted via: ExactAudioCopy v0.95b4
#
DISCID=30063805
DTITLE=Dead Or Alive - Sex Drive [CD2] - CD Maxi Single
DYEAR=1999
DGENRE=Dance
TTITLE0=Sex Drive (Radio Edit)
TTITLE1=Sex Drive (Scream Driven Edit)
TTITLE2=Sex Drive (Dead Or Alive Original Mix)
TTITLE3=Sex Drive (Scream Driven Mix)
TTITLE4=Sex Drive (Pee Wee Remix)
EXTD=Sex Drive - You Spin Me Round Maxi Singles
EXTT0=
EXTT1=
EXTT2=
EXTT3=
EXTT4=
PLAYORDER=
